<svg id="svg" version="1.1" xmlns="http://www.w3.org/2000/svg" xmlns:xlink="http://www.w3.org/1999/xlink" width="400" height="400" viewBox="0, 0, 400,400"><g id="svgg"><path id="path0" d="M252.800 231.584 C 251.370 231.764,248.400 232.121,246.200 232.377 C 244.000 232.634,241.120 233.175,239.800 233.579 C 233.160 235.613,231.756 236.011,231.241 236.006 C 230.712 236.000,223.119 239.546,218.431 241.988 C 214.856 243.850,206.311 250.497,202.953 254.028 C 197.563 259.695,196.155 261.408,194.424 264.400 C 193.725 265.610,192.346 267.932,191.360 269.560 C 189.622 272.432,188.368 275.398,187.575 278.514 C 187.363 279.346,187.015 280.336,186.801 280.714 C 183.990 285.681,182.830 303.438,184.810 311.200 C 186.332 317.168,189.266 325.021,191.162 328.200 C 193.651 332.375,193.682 332.426,195.161 334.800 C 200.093 342.716,212.992 354.032,221.153 357.604 C 221.678 357.833,223.928 358.901,226.154 359.978 C 228.380 361.054,230.741 362.053,231.401 362.196 C 232.060 362.340,233.770 362.796,235.200 363.210 C 236.630 363.624,239.060 364.320,240.600 364.756 C 242.140 365.193,245.470 365.748,248.000 365.989 C 250.530 366.231,253.995 366.593,255.700 366.795 C 257.574 367.016,260.026 367.017,261.900 366.796 C 263.605 366.595,267.070 366.236,269.600 365.998 C 273.982 365.587,275.807 365.188,282.200 363.241 C 283.740 362.772,285.320 362.391,285.712 362.394 C 286.103 362.397,288.470 361.413,290.971 360.206 C 293.471 358.999,295.941 357.828,296.459 357.604 C 298.884 356.555,302.595 354.265,305.317 352.138 C 306.962 350.852,308.734 349.530,309.254 349.200 C 310.355 348.502,314.703 344.202,318.326 340.228 C 320.996 337.300,322.412 335.280,325.219 330.400 C 326.168 328.750,327.146 327.130,327.391 326.800 C 327.943 326.059,330.267 319.834,331.200 316.600 C 331.390 315.940,331.818 314.590,332.151 313.600 C 333.838 308.577,334.512 296.699,333.446 290.801 C 333.107 288.930,332.747 286.860,332.644 286.200 C 332.069 282.496,327.914 271.979,325.611 268.400 C 324.936 267.351,324.808 267.137,322.740 263.600 C 322.032 262.390,320.615 260.500,319.591 259.400 C 318.567 258.300,316.486 256.050,314.966 254.400 C 312.550 251.776,309.135 248.917,302.635 244.075 C 300.994 242.852,298.454 241.454,296.000 240.422 C 295.450 240.191,294.730 239.830,294.400 239.620 C 293.141 238.820,286.854 236.000,286.339 236.006 C 285.848 236.011,283.194 235.254,278.400 233.741 C 273.425 232.170,258.280 230.894,252.800 231.584 " stroke="none" fill="#13f204" fill-rule="evenodd"></path><path id="path1" d="M145.800 231.431 C 145.360 231.499,142.480 231.850,139.400 232.213 C 136.320 232.575,132.720 233.205,131.400 233.612 C 126.095 235.250,123.373 236.011,122.843 236.006 C 121.682 235.994,108.082 243.003,105.473 244.957 C 98.942 249.851,96.812 251.681,93.800 254.987 C 92.040 256.919,90.006 259.152,89.279 259.950 C 88.553 260.747,87.293 262.542,86.479 263.939 C 85.666 265.335,84.730 266.894,84.400 267.403 C 83.263 269.159,81.200 272.788,81.200 273.033 C 81.200 273.169,80.949 273.846,80.643 274.540 C 79.990 276.019,78.955 279.036,78.198 281.669 C 77.903 282.697,77.482 283.872,77.264 284.281 C 76.888 284.983,76.533 286.990,75.545 294.000 C 74.564 300.953,76.191 312.605,79.043 319.060 C 79.349 319.754,79.600 320.530,79.600 320.786 C 79.600 321.282,81.034 324.995,81.614 326.000 C 81.804 326.330,83.004 328.365,84.280 330.522 C 85.556 332.680,86.892 334.974,87.249 335.621 C 87.606 336.268,89.586 338.619,91.649 340.846 C 93.712 343.072,95.850 345.387,96.400 345.989 C 100.986 351.009,117.528 360.856,124.219 362.549 C 129.018 363.763,130.232 364.105,131.800 364.682 C 132.680 365.006,135.650 365.516,138.400 365.816 C 141.150 366.116,144.959 366.550,146.865 366.781 C 149.274 367.073,151.469 367.074,154.065 366.785 C 156.119 366.556,160.050 366.117,162.800 365.810 C 165.550 365.502,168.610 364.980,169.600 364.649 C 172.783 363.584,176.985 362.388,177.522 362.394 C 178.953 362.410,192.066 355.792,195.282 353.432 C 201.479 348.882,201.420 349.458,196.252 343.882 C 192.962 340.333,192.070 339.177,190.422 336.325 C 190.080 335.734,189.080 334.048,188.200 332.578 C 185.028 327.280,184.453 326.187,184.424 325.400 C 184.408 324.960,184.120 324.072,183.783 323.426 C 183.446 322.781,183.004 321.611,182.800 320.826 C 182.595 320.042,181.878 317.780,181.205 315.800 C 178.657 308.304,178.296 289.775,180.591 284.283 C 180.926 283.481,181.201 282.505,181.202 282.113 C 181.204 281.721,181.480 280.872,181.817 280.226 C 182.154 279.581,182.596 278.411,182.799 277.626 C 183.671 274.260,185.082 270.811,186.655 268.200 C 187.583 266.660,189.249 263.856,190.359 261.969 C 191.468 260.082,193.931 256.851,195.831 254.790 C 200.528 249.693,200.706 249.401,199.753 248.346 C 197.090 245.396,180.733 235.979,178.319 236.006 C 177.802 236.012,174.373 235.041,169.800 233.594 C 168.480 233.176,165.600 232.630,163.400 232.379 C 161.200 232.129,158.050 231.771,156.400 231.584 C 153.536 231.259,147.497 231.172,145.800 231.431 " stroke="none" fill="#fa2b2b" fill-rule="evenodd"></path><path id="path2" d="M85.200 18.800 C 85.200 19.333,84.933 19.600,84.400 19.600 C 83.867 19.600,83.600 19.867,83.600 20.400 C 83.600 20.933,83.333 21.200,82.800 21.200 C 82.002 21.200,82.000 21.467,82.000 120.400 L 82.000 219.600 70.400 219.600 C 59.067 219.600,58.800 219.618,58.800 220.400 C 58.800 220.933,58.533 221.200,58.000 221.200 C 57.203 221.200,57.200 221.467,57.200 300.000 C 57.200 378.533,57.203 378.800,58.000 378.800 C 58.534 378.800,58.800 379.067,58.800 379.601 C 58.800 380.400,59.000 380.401,203.900 380.301 L 349.000 380.200 349.000 300.000 L 349.000 219.800 337.300 219.694 L 325.600 219.588 325.600 120.990 C 325.600 22.887,325.596 22.389,324.800 21.707 C 324.360 21.330,324.000 20.702,324.000 20.311 C 324.000 19.867,323.700 19.600,323.200 19.600 C 322.760 19.600,322.400 19.349,322.400 19.043 C 322.400 18.009,321.333 18.000,203.167 18.000 C 85.467 18.000,85.200 18.002,85.200 18.800 M310.977 32.489 C 311.803 33.668,311.945 216.295,311.120 217.120 C 310.481 217.759,97.167 217.825,95.974 217.186 C 95.212 216.778,95.200 215.320,95.200 124.767 L 95.200 32.761 96.500 32.196 C 97.609 31.714,113.437 31.629,204.077 31.616 L 310.355 31.600 310.977 32.489 M134.489 48.807 C 131.039 50.228,131.137 49.152,131.280 83.868 L 131.400 113.136 132.400 114.202 C 134.739 116.697,135.438 116.800,150.000 116.800 C 164.562 116.800,165.261 116.697,167.600 114.202 L 168.600 113.136 168.600 82.237 L 168.600 51.338 167.231 49.969 L 165.862 48.600 150.631 48.516 C 141.853 48.468,135.014 48.591,134.489 48.807 M241.800 48.680 C 240.682 48.968,240.038 49.556,238.946 51.286 L 238.000 52.784 237.999 82.292 C 237.997 120.705,235.850 116.805,257.000 116.805 C 272.499 116.805,273.448 116.618,275.253 113.216 L 276.200 111.432 276.200 82.006 C 276.200 59.630,276.084 52.439,275.718 51.990 C 275.452 51.666,274.702 50.770,274.051 50.000 L 272.866 48.600 257.733 48.537 C 249.410 48.503,242.240 48.567,241.800 48.680 M156.400 60.800 C 157.400 61.800,157.664 101.659,156.683 103.600 C 156.105 104.743,145.002 105.398,143.754 104.362 C 142.803 103.572,142.944 60.989,143.900 60.432 C 145.329 59.600,155.499 59.899,156.400 60.800 M263.749 60.757 C 264.715 61.560,264.571 103.792,263.600 104.414 C 262.109 105.371,250.663 104.679,250.117 103.600 C 249.388 102.156,249.371 62.049,250.100 61.105 C 251.031 59.897,262.367 59.609,263.749 60.757 M156.400 231.584 C 158.050 231.771,161.200 232.129,163.400 232.379 C 165.600 232.630,168.480 233.176,169.800 233.594 C 174.373 235.041,177.802 236.012,178.319 236.006 C 180.733 235.979,197.090 245.396,199.753 248.346 C 200.706 249.401,200.528 249.693,195.831 254.790 C 193.931 256.851,191.468 260.082,190.359 261.969 C 189.249 263.856,187.583 266.660,186.655 268.200 C 185.082 270.811,183.671 274.260,182.799 277.626 C 182.596 278.411,182.154 279.581,181.817 280.226 C 181.480 280.872,181.204 281.721,181.202 282.113 C 181.201 282.505,180.926 283.481,180.591 284.283 C 178.296 289.775,178.657 308.304,181.205 315.800 C 181.878 317.780,182.595 320.042,182.800 320.826 C 183.004 321.611,183.446 322.781,183.783 323.426 C 184.120 324.072,184.408 324.960,184.424 325.400 C 184.453 326.187,185.028 327.280,188.200 332.578 C 189.080 334.048,190.080 335.734,190.422 336.325 C 192.070 339.177,192.962 340.333,196.252 343.882 C 201.420 349.458,201.479 348.882,195.282 353.432 C 192.066 355.792,178.953 362.410,177.522 362.394 C 176.985 362.388,172.783 363.584,169.600 364.649 C 168.610 364.980,165.550 365.502,162.800 365.810 C 160.050 366.117,156.119 366.556,154.065 366.785 C 151.469 367.074,149.274 367.073,146.865 366.781 C 144.959 366.550,141.150 366.116,138.400 365.816 C 135.650 365.516,132.680 365.006,131.800 364.682 C 130.232 364.105,129.018 363.763,124.219 362.549 C 117.528 360.856,100.986 351.009,96.400 345.989 C 95.850 345.387,93.712 343.072,91.649 340.846 C 89.586 338.619,87.606 336.268,87.249 335.621 C 86.892 334.974,85.556 332.680,84.280 330.522 C 83.004 328.365,81.804 326.330,81.614 326.000 C 81.034 324.995,79.600 321.282,79.600 320.786 C 79.600 320.530,79.349 319.754,79.043 319.060 C 77.685 315.986,77.082 313.744,75.961 307.600 C 75.301 303.980,75.093 297.201,75.545 294.000 C 76.533 286.990,76.888 284.983,77.264 284.281 C 77.482 283.872,77.903 282.697,78.198 281.669 C 78.955 279.036,79.990 276.019,80.643 274.540 C 80.949 273.846,81.200 273.169,81.200 273.033 C 81.200 272.788,83.263 269.159,84.400 267.403 C 84.730 266.894,85.666 265.335,86.479 263.939 C 87.293 262.542,88.553 260.747,89.279 259.950 C 90.006 259.152,92.040 256.919,93.800 254.987 C 96.812 251.681,98.942 249.851,105.473 244.957 C 108.082 243.003,121.682 235.994,122.843 236.006 C 123.373 236.011,126.095 235.250,131.400 233.612 C 132.720 233.205,136.320 232.575,139.400 232.213 C 142.480 231.850,145.360 231.499,145.800 231.431 C 147.497 231.172,153.536 231.259,156.400 231.584 M271.000 232.380 C 274.080 232.816,277.410 233.428,278.400 233.741 C 283.194 235.254,285.848 236.011,286.339 236.006 C 286.854 236.000,293.141 238.820,294.400 239.620 C 294.730 239.830,295.450 240.191,296.000 240.422 C 298.454 241.454,300.994 242.852,302.635 244.075 C 309.135 248.917,312.550 251.776,314.966 254.400 C 316.486 256.050,318.567 258.300,319.591 259.400 C 320.615 260.500,322.032 262.390,322.740 263.600 C 324.808 267.137,324.936 267.351,325.611 268.400 C 327.914 271.979,332.069 282.496,332.644 286.200 C 332.747 286.860,333.107 288.930,333.446 290.801 C 334.512 296.699,333.838 308.577,332.151 313.600 C 331.818 314.590,331.390 315.940,331.200 316.600 C 330.267 319.834,327.943 326.059,327.391 326.800 C 327.146 327.130,326.168 328.750,325.219 330.400 C 322.412 335.280,320.996 337.300,318.326 340.228 C 314.703 344.202,310.355 348.502,309.254 349.200 C 308.734 349.530,306.962 350.852,305.317 352.138 C 302.595 354.265,298.884 356.555,296.459 357.604 C 295.941 357.828,293.471 358.999,290.971 360.206 C 288.470 361.413,286.103 362.397,285.712 362.394 C 285.320 362.391,283.740 362.772,282.200 363.241 C 275.807 365.188,273.982 365.587,269.600 365.998 C 267.070 366.236,263.605 366.595,261.900 366.796 C 260.026 367.017,257.574 367.016,255.700 366.795 C 253.995 366.593,250.530 366.231,248.000 365.989 C 245.470 365.748,242.140 365.193,240.600 364.756 C 239.060 364.320,236.630 363.624,235.200 363.210 C 233.770 362.796,232.060 362.340,231.401 362.196 C 230.741 362.053,228.380 361.054,226.154 359.978 C 223.928 358.901,221.678 357.833,221.153 357.604 C 212.992 354.032,200.093 342.716,195.161 334.800 C 193.682 332.426,193.651 332.375,191.162 328.200 C 189.266 325.021,186.332 317.168,184.810 311.200 C 182.830 303.438,183.990 285.681,186.801 280.714 C 187.015 280.336,187.363 279.346,187.575 278.514 C 188.368 275.398,189.622 272.432,191.360 269.560 C 192.346 267.932,193.725 265.610,194.424 264.400 C 196.155 261.408,197.563 259.695,202.953 254.028 C 206.311 250.497,214.856 243.850,218.431 241.988 C 223.119 239.546,230.712 236.000,231.241 236.006 C 231.756 236.011,233.160 235.613,239.800 233.579 C 241.120 233.175,244.000 232.634,246.200 232.377 C 248.400 232.121,251.370 231.764,252.800 231.584 C 256.536 231.114,264.515 231.463,271.000 232.380 " stroke="none" fill="#060605" fill-rule="evenodd"></path><path id="path3" d="M97.100 33.232 C 96.265 33.719,95.982 214.472,96.814 216.026 C 97.222 216.788,98.845 216.800,203.767 216.800 L 310.307 216.800 310.548 215.900 C 311.053 214.015,310.828 33.788,310.320 33.280 C 309.686 32.646,98.187 32.599,97.100 33.232 M165.176 47.590 C 170.635 49.742,170.436 48.376,170.308 82.804 C 170.186 115.488,170.380 113.499,167.063 116.165 L 165.526 117.400 150.047 117.400 L 134.568 117.400 132.945 116.115 C 129.506 113.391,129.600 114.344,129.602 82.064 C 129.605 57.774,129.689 53.639,130.202 52.654 C 130.531 52.024,130.800 51.293,130.800 51.029 C 130.800 50.236,133.132 48.254,134.922 47.527 C 137.654 46.416,162.329 46.468,165.176 47.590 M272.525 47.784 C 274.040 48.454,275.076 49.249,275.774 50.277 L 276.800 51.786 276.800 82.627 L 276.800 113.468 274.973 115.321 C 272.601 117.727,273.129 117.666,255.990 117.522 C 239.636 117.385,240.520 117.544,238.138 114.316 L 237.200 113.045 237.200 82.444 L 237.200 51.843 238.286 50.276 C 240.526 47.043,241.460 46.870,256.850 46.833 L 270.300 46.800 272.525 47.784 M144.277 61.456 C 143.937 61.796,143.904 102.083,144.243 102.967 C 144.691 104.136,155.515 103.886,155.803 102.700 C 155.923 102.205,155.972 92.710,155.911 81.600 L 155.800 61.400 150.177 61.289 C 147.085 61.229,144.430 61.304,144.277 61.456 M251.300 61.465 C 250.397 61.829,250.592 102.354,251.500 103.043 C 252.481 103.788,261.519 103.788,262.500 103.043 C 263.524 102.266,263.589 61.835,262.567 61.443 C 261.816 61.154,252.022 61.174,251.300 61.465 " stroke="none" fill="#fbfbfb" fill-rule="evenodd"></path><path id="path4" d="M96.500 32.196 L 95.200 32.761 95.200 124.767 C 95.200 215.320,95.212 216.778,95.974 217.186 C 97.167 217.825,310.481 217.759,311.120 217.120 C 311.945 216.295,311.803 33.668,310.977 32.489 L 310.355 31.600 204.077 31.616 C 113.437 31.629,97.609 31.714,96.500 32.196 M310.320 33.280 C 310.828 33.788,311.053 214.015,310.548 215.900 L 310.307 216.800 203.767 216.800 C 98.845 216.800,97.222 216.788,96.814 216.026 C 95.982 214.472,96.265 33.719,97.100 33.232 C 98.187 32.599,309.686 32.646,310.320 33.280 M134.922 47.527 C 133.132 48.254,130.800 50.236,130.800 51.029 C 130.800 51.293,130.531 52.024,130.202 52.654 C 129.689 53.639,129.605 57.774,129.602 82.064 C 129.600 114.344,129.506 113.391,132.945 116.115 L 134.568 117.400 150.047 117.400 L 165.526 117.400 167.063 116.165 C 170.380 113.499,170.186 115.488,170.308 82.804 C 170.454 43.549,172.290 46.785,149.885 46.822 C 138.324 46.842,136.382 46.933,134.922 47.527 M241.386 47.787 C 240.093 48.379,238.983 49.270,238.286 50.276 L 237.200 51.843 237.200 82.444 L 237.200 113.045 238.138 114.316 C 240.520 117.544,239.636 117.385,255.990 117.522 C 273.129 117.666,272.601 117.727,274.973 115.321 L 276.800 113.468 276.800 82.627 L 276.800 51.786 275.774 50.277 C 275.076 49.249,274.040 48.454,272.525 47.784 L 270.300 46.800 256.850 46.833 C 243.692 46.865,243.356 46.886,241.386 47.787 M167.231 49.969 L 168.600 51.338 168.600 82.237 L 168.600 113.136 167.600 114.202 C 165.261 116.697,164.562 116.800,150.000 116.800 C 135.438 116.800,134.739 116.697,132.400 114.202 L 131.400 113.136 131.280 83.868 C 131.150 52.188,131.166 51.786,132.608 50.229 C 134.232 48.476,134.737 48.428,150.631 48.516 L 165.862 48.600 167.231 49.969 M274.051 50.000 C 274.702 50.770,275.452 51.666,275.718 51.990 C 276.084 52.439,276.200 59.630,276.200 82.006 L 276.200 111.432 275.253 113.216 C 273.448 116.618,272.499 116.805,257.000 116.805 C 235.850 116.805,237.997 120.705,237.999 82.292 L 238.000 52.784 238.946 51.286 C 240.831 48.299,239.711 48.463,257.733 48.537 L 272.866 48.600 274.051 50.000 M143.900 60.432 C 142.944 60.989,142.803 103.572,143.754 104.362 C 145.002 105.398,156.105 104.743,156.683 103.600 C 157.664 101.659,157.400 61.800,156.400 60.800 C 155.499 59.899,145.329 59.600,143.900 60.432 M251.600 60.264 C 251.050 60.370,250.375 60.748,250.100 61.105 C 249.371 62.049,249.388 102.156,250.117 103.600 C 250.663 104.679,262.109 105.371,263.600 104.414 C 264.571 103.792,264.715 61.560,263.749 60.757 C 263.074 60.197,253.889 59.824,251.600 60.264 M155.911 81.600 C 155.972 92.710,155.923 102.205,155.803 102.700 C 155.515 103.886,144.691 104.136,144.243 102.967 C 143.904 102.083,143.937 61.796,144.277 61.456 C 144.430 61.304,147.085 61.229,150.177 61.289 L 155.800 61.400 155.911 81.600 M262.567 61.443 C 263.589 61.835,263.524 102.266,262.500 103.043 C 261.519 103.788,252.481 103.788,251.500 103.043 C 250.592 102.354,250.397 61.829,251.300 61.465 C 252.022 61.174,261.816 61.154,262.567 61.443 " stroke="none" fill="#747474" fill-rule="evenodd"></path></g></svg>